<svg width="24" height="24" viewBox="0 0 24 24" fill="none" xmlns="http://www.w3.org/2000/svg">
<path d="M12 0C5.417 0 0 5.417 0 12C0 18.583 5.417 24 12 24C18.583 24 24 18.583 24 12C24 5.417 18.583 0 12 0ZM12 2.478C17.256 2.478 21.522 6.744 21.522 12C21.522 17.256 17.256 21.522 12 21.522C6.744 21.522 2.478 17.256 2.478 12C2.478 11.115 2.598 10.259 2.825 9.446C3.26238 10.0831 3.8483 10.6042 4.53215 10.9641C5.216 11.3241 5.9772 11.5121 6.75 11.512C8.0128 11.5115 9.22372 11.0096 10.1167 10.1167C11.0096 9.22372 11.5115 8.0128 11.512 6.75C11.5122 5.97708 11.3241 5.21576 10.9639 4.53187C10.6038 3.84799 10.0824 3.26214 9.445 2.825C10.277 2.59407 11.1365 2.47734 12 2.478V2.478Z" fill="black"/>
</svg>
