<svg role="img" viewBox="0 0 24 24" xmlns="http://www.w3.org/2000/svg" id="Nvm--Streamline-Simple-Icons" height="24" width="24">
  <desc>
    Nvm Streamline Icon: https://streamlinehq.com
  </desc>
  <title>nvm</title>
  <path d="m7.178 7.98 -0.1986 0.004a0.045 0.045 0 0 0 -0.0376 0.0684l0.104 0.1715a0.045 0.045 0 0 0 0.0394 0.0216l0.1986 -0.004a0.045 0.045 0 0 0 0.0376 -0.0684l-0.104 -0.1715a0.045 0.045 0 0 0 -0.0394 -0.0217m-1.2178 0.0846 -0.1625 0.0036a0.045 0.045 0 0 0 -0.0375 0.0683l0.085 0.1405a0.045 0.045 0 0 0 0.0396 0.0218l0.1625 -0.0036a0.045 0.045 0 0 0 0.0376 -0.0684l-0.0852 -0.1405a0.045 0.045 0 0 0 -0.0395 -0.0217m0.7111 0.3967 -0.281 0.0058a0.045 0.045 0 0 0 -0.0375 0.0683l0.1711 0.2824a0.045 0.045 0 0 0 0.0395 0.0218l0.281 -0.006a0.045 0.045 0 0 0 0.0376 -0.0683l-0.1712 -0.2823a0.045 0.045 0 0 0 -0.0395 -0.0217m0.843 0.2485 -0.3526 0.0077a0.045 0.045 0 0 0 -0.0375 0.0684l0.1846 0.3053a0.045 0.045 0 0 0 0.0395 0.0217l0.353 -0.0077a0.045 0.045 0 0 0 0.0376 -0.0684l-0.185 -0.3052a0.045 0.045 0 0 0 -0.0396 -0.0218m8.7293 0.1253c-0.076 -0.0006 -0.152 0.0215 -0.231 0.067q-1.3417 0.7729 -2.6863 1.541l0.1055 -0.1788c0.0693 -0.1576 0.027 -0.2242 -0.1445 -0.2242 -0.6025 -0.0005 -1.205 0.0008 -1.8076 -0.0014 -0.0887 -0.0005 -0.145 0.0315 -0.189 0.109 -0.2027 0.357 -0.409 0.712 -0.6152 1.0672h-0.0004c-0.2714 0.468 -0.8423 1.4118 -0.9034 1.5135v0.0003l-1.034 1.8842 0.0009 -0.0025 -0.0012 0.0025c0.08 0.1268 0.1693 0.2628 0.2575 0.3978l0.0413 0.065 0.0015 0.0011c0.1298 0.1982 0.26 0.3967 0.3783 0.5821 -0.1306 -0.2098 0.114 0.1486 0.1918 0.231 0.1621 0.172 0.2995 0.1743 0.4607 0.0023 0.0635 -0.068 0.1193 -0.144 0.1738 -0.2197 0.2508 -0.3499 0.4688 -0.7205 0.6872 -1.0907 0.4539 -0.769 0.8956 -1.5454 1.3432 -2.3182 0.2004 -0.3458 0.4035 -0.6898 0.6057 -1.0348 0.0102 -0.0194 0.0211 -0.0383 0.0314 -0.0576 0.0031 1.4098 0.0034 2.82 0.006 4.2297 0.0005 0.25 0.1185 0.318 0.3337 0.1954 0.543 -0.3089 1.0839 -0.6227 1.6288 -0.9289 0.171 -0.0964 0.2467 -0.227 0.2445 -0.4256 -0.0072 -0.6543 0.0018 -1.3081 -0.0055 -1.9624 -0.0027 -0.2247 0.0824 -0.376 0.2814 -0.4795 0.2022 -0.105 0.399 -0.2212 0.593 -0.34 0.1671 -0.1023 0.3248 -0.1063 0.4932 -0.0027 0.194 0.1193 0.3904 0.236 0.593 0.3395 0.2072 0.1063 0.2895 0.2653 0.2873 0.495 -0.0068 0.6425 0.004 1.285 -0.0058 1.9272 -0.0036 0.2202 0.0806 0.3593 0.2702 0.4647 0.521 0.2896 1.0361 0.589 1.5535 0.8844 0.2833 0.1617 0.3823 0.1054 0.3832 -0.2179 0.0027 -1.0573 0.0072 -2.1143 0.004 -3.1716 -0.0004 -0.1612 0.0613 -0.266 0.1941 -0.3422 0.2283 -0.1306 0.4562 -0.2612 0.6836 -0.3936 0.1513 -0.0882 0.2972 -0.0832 0.4471 0.0063 0.2004 0.1194 0.4008 0.241 0.6084 0.3477s0.2891 0.2657 0.2869 0.4953c-0.0068 0.6426 0.004 1.2852 -0.006 1.9273 -0.0035 0.2206 0.0815 0.3598 0.2707 0.4647 0.526 0.2923 1.0465 0.5944 1.5693 0.8921 0.2616 0.149 0.3661 0.0905 0.3665 -0.209 0.001 -0.73 0 -1.4603 0 -2.1903h0.0072c0 -0.73 -0.003 -1.4603 0.0018 -2.1902 0.0014 -0.2085 -0.0766 -0.3509 -0.2607 -0.4553a313 313 0 0 1 -2.7964 -1.6053c-0.1946 -0.113 -0.3638 -0.1113 -0.5566 0.0022 -0.5989 0.3526 -1.2055 0.6921 -1.8058 1.043 -0.0932 0.054 -0.1589 0.0544 -0.2526 0 -0.616 -0.359 -1.2365 -0.7093 -1.8534 -1.0664 -0.0788 -0.0457 -0.1548 -0.0691 -0.2309 -0.0697zm-12.9129 0.0017c-0.0803 0.0008 -0.1604 0.0264 -0.2455 0.0757A334 334 0 0 1 0.2735 10.526c-0.1968 0.1116 -0.276 0.259 -0.2734 0.4827 0.0081 0.7183 0.0032 1.4365 0.0032 2.1547h0.0045c0 0.7358 -0.001 1.4716 0 2.2074 0.0004 0.2918 0.113 0.354 0.3701 0.2071 0.5224 -0.2985 1.0415 -0.6016 1.568 -0.8934 0.1909 -0.1058 0.2733 -0.2444 0.2701 -0.4642 -0.009 -0.6538 -0.0013 -1.3081 -0.0045 -1.962 -0.0009 -0.1927 0.0649 -0.3364 0.2396 -0.4318 0.2256 -0.1234 0.4471 -0.2536 0.6687 -0.3837 0.145 -0.0852 0.286 -0.0837 0.4305 0.0014 0.2067 0.121 0.4111 0.2467 0.624 0.3557 0.209 0.1072 0.286 0.2684 0.2838 0.4967 -0.0068 0.648 0.0023 1.2964 -0.0049 1.9444 -0.0023 0.2062 0.0792 0.3368 0.2571 0.4359 0.5305 0.2958 1.056 0.6012 1.5833 0.9024 0.2553 0.146 0.3647 0.0824 0.3651 -0.2143 0.003 -1.338 0.0037 -2.6762 0.008 -4.0142l2.0724 3.2579 0.7471 -2.3635 0.121 0.2048 -0.301 -0.5165 -0.0796 -0.1373 -0.1828 -0.314a0.045 0.045 0 0 0 -0.045 -0.0219l-0.7254 0.0981 -0.0622 -0.113 -0.0005 -0.001 -0.2337 -0.4008a0.045 0.045 0 0 0 -0.0395 -0.0223l-0.258 0.0032a0.045 0.045 0 0 0 -0.0384 0.0676l0.0316 0.0543 -0.5535 0.0031 -0.131 -0.2256a0.045 0.045 0 0 0 -0.0393 -0.0224l-0.2862 0.0021c-0.019 -0.1645 -0.1007 -0.2811 -0.2593 -0.3713a358 358 0 0 1 -2.8265 -1.623c-0.0856 -0.0495 -0.166 -0.0734 -0.2462 -0.0725m2.8363 0.0235 -0.237 0.0049a0.045 0.045 0 0 0 -0.0375 0.0683l0.1442 0.2378a0.045 0.045 0 0 0 0.0395 0.0217l0.2368 -0.0049a0.045 0.045 0 0 0 0.0376 -0.0683l-0.1441 -0.2378a0.045 0.045 0 0 0 -0.0395 -0.0217m0.5498 0.4138 -0.2494 0.0055a0.045 0.045 0 0 0 -0.0376 0.0683l0.1305 0.2157a0.045 0.045 0 0 0 0.0395 0.0217l0.2495 -0.0054a0.045 0.045 0 0 0 0.0376 -0.0684l-0.1306 -0.2157a0.045 0.045 0 0 0 -0.0395 -0.0217m0.7551 0.0396 -0.3656 0.0077a0.045 0.045 0 0 0 -0.0375 0.0684l0.191 0.3156a0.045 0.045 0 0 0 0.0393 0.0217l0.2244 -0.0044 0.1761 0.2907a0.045 0.045 0 0 0 0.0395 0.0217l0.5196 -0.0108a0.045 0.045 0 0 0 0.0376 -0.0683l-0.3165 -0.5224a0.045 0.045 0 0 0 -0.0395 -0.0217l-0.3775 0.008 -0.0515 -0.0845a0.045 0.045 0 0 0 -0.0394 -0.0216zm-1.3612 0.0797 -0.199 0.004a0.045 0.045 0 0 0 -0.0376 0.0684l0.104 0.1715a0.045 0.045 0 0 0 0.0395 0.0218l0.1986 -0.004a0.045 0.045 0 0 0 0.0375 -0.0684l-0.1035 -0.1715a0.045 0.045 0 0 0 -0.0395 -0.0218m0.6017 0.459 -0.2882 0.0057a0.045 0.045 0 0 0 -0.0377 0.0684l0.1757 0.29a0.045 0.045 0 0 0 0.0395 0.0217l0.077 -0.0017 0.15 0.2479a0.045 0.045 0 0 0 0.0395 0.0217l0.4724 -0.0099a0.045 0.045 0 0 0 0.0376 -0.0683l-0.2878 -0.4746a0.045 0.045 0 0 0 -0.0394 -0.0217l-0.261 0.0053 -0.0383 -0.0629a0.045 0.045 0 0 0 -0.0393 -0.0216m1.925 0.643 -0.6449 0.014a0.045 0.045 0 0 0 -0.0376 0.0683l0.128 0.2108a0.045 0.045 0 0 0 0.0394 0.0216l0.1713 -0.0035 0.1054 0.1733a0.045 0.045 0 0 0 0.0394 0.0216l0.4472 -0.0095a0.045 0.045 0 0 0 0.0376 -0.0683l-0.2464 -0.4066a0.045 0.045 0 0 0 -0.0395 -0.0217z" fill="#000000" stroke-width="1"></path>
</svg>