<svg version="1.1" id="Layer_1" xmlns="http://www.w3.org/2000/svg" xmlns:xlink="http://www.w3.org/1999/xlink" x="0px" y="0px"
	 width="100%" viewBox="0 0 57 57" enable-background="new 0 0 57 57" xml:space="preserve">
<path fill="#000000" opacity="1.000000" stroke="none" 
	d="
M1.000000,40.000000 
	C1.000000,27.049311 1.000000,14.098619 1.000000,1.073965 
	C19.878393,1.073965 38.757122,1.073965 58.000000,1.073965 
	C58.000000,7.349334 58.000000,13.705625 57.634148,20.571430 
	C55.813889,21.702854 54.359482,22.324759 52.597080,23.074251 
	C51.866066,23.926039 51.443043,24.650238 51.026260,25.405455 
	C51.032494,25.436470 51.005806,25.380274 50.734566,25.166843 
	C49.993454,23.266165 49.523579,21.578918 49.024330,19.548122 
	C47.703468,18.123714 46.411983,17.042858 45.062263,15.585751 
	C43.020218,13.769514 41.036407,12.329531 38.855232,10.541486 
	C33.947468,10.132748 29.236824,10.047493 24.527428,10.092571 
	C24.318031,10.094576 24.119993,11.283173 23.571848,11.957474 
	C22.457716,12.310791 21.688400,12.625699 20.536751,12.984030 
	C19.494869,15.032502 18.835321,17.037552 18.103905,19.372911 
	C17.415667,20.462023 16.799297,21.220825 16.005375,22.318611 
	C11.363358,24.732660 4.749457,24.355879 5.095213,32.385880 
	C4.738113,34.493874 4.454639,36.217896 4.028563,38.251869 
	C2.923975,39.041214 1.961988,39.520607 1.000000,40.000000 
z"/>
<path fill="#000000" opacity="1.000000" stroke="none" 
	d="
M58.000000,27.000000 
	C58.000000,37.287701 58.000000,47.575401 58.000000,57.931549 
	C39.000057,57.931549 20.000051,57.931549 1.000000,57.931549 
	C1.000000,53.576633 1.000000,49.262444 1.192642,44.077995 
	C1.941944,43.296486 2.498603,43.385235 3.510975,43.709763 
	C4.617943,43.401436 5.269198,42.857327 6.178352,42.212555 
	C6.616833,42.150040 6.797413,42.188187 6.918081,42.762466 
	C7.710406,46.048611 7.850216,49.564758 9.678632,51.264996 
	C10.798525,52.306377 14.508483,50.562428 17.286282,50.026165 
	C17.517277,49.983006 17.945454,49.789219 18.247150,49.770874 
	C18.989363,49.158138 19.429882,48.563747 19.917774,47.638580 
	C20.018324,46.866871 20.071497,46.425934 20.359440,45.942741 
	C20.882977,45.713760 21.043947,45.449249 21.471333,45.065102 
	C23.575964,45.708340 25.286386,46.393425 27.024517,47.300926 
	C27.052225,47.523346 27.194695,47.948380 27.143139,48.217106 
	C27.376251,48.694359 27.660919,48.902882 27.983562,49.327148 
	C28.021538,49.542889 28.189550,49.947510 28.173616,50.354435 
	C30.667339,50.949581 33.556007,52.014172 35.601646,51.129471 
	C39.040222,49.642353 39.740704,46.155392 38.771820,42.422157 
	C38.815636,42.324104 38.811382,42.109344 39.010918,41.951363 
	C39.146835,41.204163 39.083218,40.614937 39.017735,39.798405 
	C39.015873,39.571095 39.059952,39.118607 39.308250,39.032501 
	C39.725079,38.652637 39.893612,38.358879 40.392326,38.002609 
	C41.092979,37.306271 41.463459,36.672440 41.961094,35.733894 
	C42.406261,34.654308 42.724270,33.879433 43.290092,33.049484 
	C43.698685,32.941544 43.859451,32.888668 44.282196,32.942642 
	C44.999184,33.309605 45.454193,33.569710 46.319653,33.897511 
	C48.510242,33.659206 50.290379,33.353203 52.311485,32.977379 
	C52.727932,32.632713 52.903416,32.357872 53.380623,31.954689 
	C54.397785,30.543350 55.113220,29.260353 56.021660,27.630157 
	C56.809780,27.188641 57.404888,27.094320 58.000000,27.000000 
z"/>
<path fill="#F9710A" opacity="1.000000" stroke="none" 
	d="
M3.055262,43.473984 
	C2.498603,43.385235 1.941944,43.296486 1.192642,43.603867 
	C1.000000,42.933338 1.000000,41.866673 1.000000,40.400005 
	C1.961988,39.520607 2.923975,39.041214 4.310732,38.313770 
	C5.433680,38.386871 6.131856,38.708023 6.880035,39.362450 
	C6.955049,40.144016 6.980060,40.592300 7.005087,41.170372 
	C6.956873,41.619141 6.947836,41.927864 6.977993,42.226334 
	C6.797413,42.188187 6.616833,42.150040 6.089549,42.044426 
	C4.846984,42.475971 3.951123,42.974976 3.055262,43.473984 
z"/>
<path fill="#FD8209" opacity="1.000000" stroke="none" 
	d="
M58.000000,26.666668 
	C57.404888,27.094320 56.809780,27.188641 55.656418,27.504055 
	C53.738785,26.941580 52.379402,26.158010 51.020023,25.374439 
	C51.443043,24.650238 51.866066,23.926039 52.909019,23.222698 
	C55.019299,23.829039 56.509651,24.414518 58.000000,25.000000 
	C58.000000,25.444445 58.000000,25.888889 58.000000,26.666668 
z"/>
<path fill="#FFA111" opacity="1.000000" stroke="none" 
	d="
M58.000000,24.600002 
	C56.509651,24.414518 55.019299,23.829039 53.217010,23.095110 
	C54.359482,22.324759 55.813889,21.702854 57.634148,21.040474 
	C58.000000,22.066669 58.000000,23.133339 58.000000,24.600002 
z"/>
<path fill="#FEB220" opacity="1.000000" stroke="none" 
	d="
M5.168839,32.001907 
	C4.749457,24.355879 11.363358,24.732660 16.226099,22.321541 
	C16.624374,21.985485 17.065723,21.995939 17.058987,22.327854 
	C17.052498,23.102354 17.052748,23.544941 17.195602,24.278271 
	C18.905846,26.013662 20.473482,27.458315 21.915230,29.026043 
	C21.740623,29.253941 21.624092,29.391397 21.655891,29.457478 
	C21.751719,29.656622 21.905252,29.827993 22.011448,30.005505 
	C21.986612,30.000813 22.013580,29.958055 21.996185,30.223612 
	C21.960440,30.665634 21.942091,30.842098 21.551846,31.183823 
	C16.461117,31.899101 11.742281,32.449120 6.784445,32.888634 
	C6.086576,32.519390 5.627707,32.260651 5.168839,32.001907 
z"/>
<path fill="#FE9D21" opacity="1.000000" stroke="none" 
	d="
M5.095213,32.385880 
	C5.627707,32.260651 6.086576,32.519390 6.816368,33.274040 
	C8.174145,34.521194 9.174025,35.707253 10.363552,35.945194 
	C14.557770,36.784145 18.817020,37.297977 23.282673,38.166634 
	C24.708590,40.255459 25.903439,42.112774 27.084089,44.358139 
	C27.045530,45.523628 27.021170,46.301067 26.996811,47.078506 
	C25.286386,46.393425 23.575964,45.708340 21.432552,44.690235 
	C17.527521,39.253902 11.813598,40.112705 6.830032,39.029175 
	C6.131856,38.708023 5.433680,38.386871 4.453334,38.003815 
	C4.454639,36.217896 4.738113,34.493874 5.095213,32.385880 
z"/>
<path fill="#FFD738" opacity="1.000000" stroke="none" 
	d="
M39.052593,10.889546 
	C41.036407,12.329531 43.020218,13.769514 44.672386,15.601297 
	C43.560440,15.997778 42.780140,16.002459 41.741108,15.774101 
	C39.252472,14.805629 37.022560,14.070194 34.792652,13.334760 
	C34.564274,13.650823 34.335896,13.966885 34.107517,14.282947 
	C35.401859,16.523636 36.696205,18.764322 38.048424,21.345299 
	C38.417530,22.790995 38.728760,23.896402 38.593960,25.000465 
	C35.780975,24.988306 33.414021,24.977497 31.037315,24.609503 
	C30.686184,23.158892 30.344805,22.065462 30.005077,20.730738 
	C30.006729,20.489441 30.004612,20.006842 30.002420,20.003536 
	C30.000229,20.000229 30.007339,20.003565 30.340286,19.896450 
	C31.109615,18.531029 31.545994,17.272722 31.985689,15.615759 
	C31.993181,14.155207 31.997356,13.093312 32.306496,11.833355 
	C34.758503,11.386711 36.905548,11.138128 39.052593,10.889546 
z"/>
<path fill="#FFA323" opacity="1.000000" stroke="none" 
	d="
M44.020222,32.835785 
	C43.859451,32.888668 43.698685,32.941544 43.278969,32.789009 
	C43.016327,32.409790 43.012634,32.235977 42.881142,31.836712 
	C42.480770,31.404001 42.208195,31.196747 41.674160,30.977692 
	C41.238659,30.953444 41.064621,30.940992 40.938263,30.708044 
	C40.985943,30.487545 41.049038,30.039835 41.187706,29.820360 
	C41.210770,28.732796 41.095169,27.864706 41.273331,26.829632 
	C44.062630,24.405655 46.558170,22.148664 49.053707,19.891674 
	C49.523579,21.578918 49.993454,23.266165 50.762573,25.565559 
	C51.734184,28.146149 52.406540,30.114590 53.078896,32.083031 
	C52.903416,32.357872 52.727932,32.632713 51.966286,32.960503 
	C49.568146,32.692909 47.756161,32.372364 45.670746,32.061600 
	C44.938282,32.326187 44.479252,32.580986 44.020222,32.835785 
z"/>
<path fill="#FFB42A" opacity="1.000000" stroke="none" 
	d="
M49.024330,19.548122 
	C46.558170,22.148664 44.062630,24.405655 41.055950,26.653875 
	C40.043205,26.097342 39.541595,25.549576 39.039989,25.001812 
	C38.728760,23.896402 38.417530,22.790995 38.210403,21.066711 
	C39.542946,18.967604 40.771389,17.487371 41.999832,16.007137 
	C42.780140,16.002459 43.560440,15.997778 44.730621,15.977551 
	C46.411983,17.042858 47.703468,18.123714 49.024330,19.548122 
z"/>
<path fill="#FF8B18" opacity="1.000000" stroke="none" 
	d="
M38.855232,10.541486 
	C36.905548,11.138128 34.758503,11.386711 31.930668,11.836639 
	C30.501129,12.103210 29.752380,12.168434 28.674809,12.228271 
	C26.869547,12.121611 25.393105,12.020336 23.916664,11.919064 
	C24.119993,11.283173 24.318031,10.094576 24.527428,10.092571 
	C29.236824,10.047493 33.947468,10.132748 38.855232,10.541486 
z"/>
<path fill="#FFA926" opacity="1.000000" stroke="none" 
	d="
M18.175774,19.042603 
	C18.835321,17.037552 19.494869,15.032502 20.816029,13.137287 
	C22.339287,14.168619 23.200933,15.090116 23.990734,16.338539 
	C22.608805,18.117054 21.298721,19.568644 19.929775,20.731207 
	C19.305868,19.975657 18.740822,19.509129 18.175774,19.042603 
z"/>
<path fill="#FFCC30" opacity="1.000000" stroke="none" 
	d="
M24.062580,16.011612 
	C23.200933,15.090116 22.339287,14.168619 21.198362,13.093865 
	C21.688400,12.625699 22.457716,12.310791 23.571848,11.957473 
	C25.393105,12.020336 26.869547,12.121611 28.598011,12.547322 
	C27.254215,13.918377 25.658398,14.964994 24.062580,16.011612 
z"/>
<path fill="#FB6704" opacity="1.000000" stroke="none" 
	d="
M53.380623,31.954689 
	C52.406540,30.114590 51.734184,28.146149 51.033813,25.778992 
	C51.005806,25.380274 51.032494,25.436470 51.026260,25.405455 
	C52.379402,26.158010 53.738785,26.941580 55.463409,27.851254 
	C55.113220,29.260353 54.397785,30.543350 53.380623,31.954689 
z"/>
<path fill="#FFCC30" opacity="1.000000" stroke="none" 
	d="
M18.103905,19.372911 
	C18.740822,19.509129 19.305868,19.975657 19.694355,20.945869 
	C18.700439,21.631683 17.883081,21.813812 17.065723,21.995939 
	C17.065723,21.995939 16.624374,21.985485 16.403650,21.982555 
	C16.799297,21.220825 17.415667,20.462023 18.103905,19.372911 
z"/>
<path fill="#FFB11A" opacity="1.000000" stroke="none" 
	d="
M6.880035,39.362450 
	C11.813598,40.112705 17.527521,39.253902 21.038345,44.732079 
	C21.043947,45.449249 20.882977,45.713760 20.201389,45.802803 
	C19.434933,46.025265 19.061295,46.345413 18.499460,46.846581 
	C18.189329,47.948143 18.067392,48.868683 17.945454,49.789219 
	C17.945454,49.789219 17.517277,49.983006 16.922394,49.969757 
	C13.220031,46.984539 10.112551,44.012562 7.005071,41.040588 
	C6.980060,40.592300 6.955049,40.144016 6.880035,39.362450 
z"/>
<path fill="#FFBA22" opacity="1.000000" stroke="none" 
	d="
M27.024517,47.300926 
	C27.021170,46.301067 27.045530,45.523628 27.274086,44.515579 
	C29.341562,42.854774 31.204845,41.424580 33.426674,39.995026 
	C34.861504,39.322903 35.937782,38.650139 37.245880,37.976566 
	C37.477699,37.975758 37.941338,37.976673 38.209049,37.985275 
	C38.655281,37.997898 38.833801,38.001911 39.020859,38.284241 
	C39.039581,38.747910 39.049767,38.933258 39.059952,39.118607 
	C39.059952,39.118607 39.015873,39.571095 38.910057,40.134872 
	C38.806618,41.168884 38.809002,41.639114 38.811382,42.109344 
	C38.811382,42.109344 38.815636,42.324104 38.460350,42.600456 
	C35.682831,46.471889 34.377728,51.633560 28.189550,49.947510 
	C28.189550,49.947510 28.021538,49.542889 27.904383,49.106922 
	C27.636866,48.391438 27.439356,48.150581 27.194695,47.948380 
	C27.194695,47.948380 27.052225,47.523346 27.024517,47.300926 
z"/>
<path fill="#EF650C" opacity="1.000000" stroke="none" 
	d="
M7.005087,41.170372 
	C10.112551,44.012562 13.220031,46.984539 16.691399,50.012917 
	C14.508483,50.562428 10.798525,52.306377 9.678632,51.264996 
	C7.850216,49.564758 7.710406,46.048611 6.918081,42.762466 
	C6.947836,41.927864 6.956873,41.619141 7.005087,41.170372 
z"/>
<path fill="#FBA61D" opacity="1.000000" stroke="none" 
	d="
M37.941338,37.976673 
	C37.941338,37.976673 37.477699,37.975758 36.901871,37.933144 
	C34.199024,37.962128 32.071999,38.033726 29.900360,37.882557 
	C29.855745,37.659790 29.827520,37.206284 30.205994,37.094456 
	C33.807175,35.106411 38.822872,36.049244 40.235149,30.967327 
	C40.453434,30.951294 40.890587,30.928543 40.890587,30.928543 
	C41.064621,30.940992 41.238659,30.953444 41.812160,31.194775 
	C42.477394,31.636494 42.743168,31.849331 43.008942,32.062168 
	C43.012634,32.235977 43.016327,32.409790 43.031151,32.844078 
	C42.724270,33.879433 42.406261,34.654308 41.730110,35.883438 
	C40.935360,36.913498 40.498749,37.489307 40.062141,38.065117 
	C39.893612,38.358879 39.725079,38.652637 39.308250,39.032501 
	C39.049767,38.933258 39.039581,38.747910 38.911896,38.158638 
	C38.464115,37.590046 38.179760,37.664032 37.941338,37.976673 
z"/>
<path fill="#DA4E04" opacity="1.000000" stroke="none" 
	d="
M28.173616,50.354435 
	C34.377728,51.633560 35.682831,46.471889 38.416534,42.698509 
	C39.740704,46.155392 39.040222,49.642353 35.601646,51.129471 
	C33.556007,52.014172 30.667339,50.949581 28.173616,50.354435 
z"/>
<path fill="#FF9C00" opacity="1.000000" stroke="none" 
	d="
M45.944180,32.051815 
	C47.756161,32.372364 49.568146,32.692909 51.725323,33.030327 
	C50.290379,33.353203 48.510242,33.659206 46.336952,33.600983 
	C45.943928,32.841774 45.944054,32.446793 45.944180,32.051815 
z"/>
<path fill="#FE970E" opacity="1.000000" stroke="none" 
	d="
M3.510975,43.709763 
	C3.951123,42.974976 4.846984,42.475971 5.831650,42.145092 
	C5.269198,42.857327 4.617943,43.401436 3.510975,43.709763 
z"/>
<path fill="#F66400" opacity="1.000000" stroke="none" 
	d="
M18.247150,49.770874 
	C18.067392,48.868683 18.189329,47.948143 18.671268,47.089386 
	C19.310980,47.423897 19.590691,47.696625 19.870403,47.969357 
	C19.429882,48.563747 18.989363,49.158138 18.247150,49.770874 
z"/>
<path fill="#FFFF00" opacity="1.000000" stroke="none" 
	d="
M45.670746,32.061600 
	C45.944054,32.446793 45.943928,32.841774 45.926498,33.533279 
	C45.454193,33.569710 44.999184,33.309605 44.282196,32.942642 
	C44.479252,32.580986 44.938282,32.326187 45.670746,32.061600 
z"/>
<path fill="#FFBA22" opacity="1.000000" stroke="none" 
	d="
M40.392323,38.002609 
	C40.498749,37.489307 40.935360,36.913498 41.602951,36.188148 
	C41.463459,36.672440 41.092979,37.306271 40.392323,38.002609 
z"/>
<path fill="#E75B06" opacity="1.000000" stroke="none" 
	d="
M19.917776,47.638580 
	C19.590691,47.696625 19.310980,47.423897 18.859463,46.908363 
	C19.061295,46.345413 19.434933,46.025265 19.966621,45.845058 
	C20.071497,46.425934 20.018324,46.866871 19.917776,47.638580 
z"/>
<path fill="#DA4E04" opacity="1.000000" stroke="none" 
	d="
M39.010918,41.951363 
	C38.809002,41.639114 38.806618,41.168884 38.911919,40.362183 
	C39.083218,40.614937 39.146835,41.204163 39.010918,41.951363 
z"/>
<path fill="#FE9D21" opacity="1.000000" stroke="none" 
	d="
M27.143139,48.217106 
	C27.439356,48.150581 27.636866,48.391438 27.866409,48.891182 
	C27.660919,48.902882 27.376251,48.694359 27.143139,48.217106 
z"/>
<path fill="#FEBC2D" opacity="1.000000" stroke="none" 
	d="
M23.051603,37.935127 
	C18.817020,37.297977 14.557770,36.784145 10.363552,35.945194 
	C9.174025,35.707253 8.174145,34.521194 7.055368,33.384544 
	C11.742281,32.449120 16.461117,31.899101 21.719757,31.437237 
	C22.858883,32.063499 23.458204,32.601612 23.986294,33.481735 
	C23.627243,35.194214 23.339424,36.564671 23.051603,37.935127 
z"/>
<path fill="#FFD234" opacity="1.000000" stroke="none" 
	d="
M17.058987,22.327854 
	C17.883081,21.813812 18.700439,21.631683 19.753216,21.234894 
	C21.298721,19.568644 22.608805,18.117054 23.990734,16.338539 
	C25.658398,14.964994 27.254215,13.918377 28.926832,12.552710 
	C29.752380,12.168434 30.501129,12.103210 31.625706,12.034702 
	C31.997356,13.093312 31.993181,14.155207 31.654055,15.721772 
	C30.881847,17.485483 30.444593,18.744524 30.007339,20.003565 
	C30.007339,20.003565 30.000229,20.000229 29.663813,20.094696 
	C26.251354,24.736624 21.558994,24.060957 17.052998,23.987528 
	C17.052748,23.544941 17.052498,23.102354 17.058987,22.327854 
z"/>
<path fill="#FFCC30" opacity="1.000000" stroke="none" 
	d="
M17.195602,24.278271 
	C21.558994,24.060957 26.251354,24.736624 29.666004,20.098003 
	C30.004612,20.006842 30.006729,20.489441 29.944231,21.072317 
	C27.921822,24.428980 25.961910,27.202765 23.670513,29.960100 
	C22.897211,29.948450 22.455397,29.953253 22.013580,29.958055 
	C22.013580,29.958055 21.986612,30.000813 22.038006,29.728668 
	C22.073307,29.272005 22.057213,29.087484 22.041119,28.902966 
	C20.473482,27.458315 18.905846,26.013662 17.195602,24.278271 
z"/>
<path fill="#F48615" opacity="1.000000" stroke="none" 
	d="
M21.996185,30.223612 
	C22.455397,29.953253 22.897211,29.948450 23.848923,30.178034 
	C24.863276,30.645155 25.367733,30.877893 25.920357,31.400288 
	C26.031464,32.076530 26.094402,32.463112 26.038399,32.959690 
	C25.919453,33.069683 25.679199,33.287086 25.407928,33.267410 
	C24.776949,33.211727 24.417236,33.175724 24.057526,33.139721 
	C23.458204,32.601612 22.858883,32.063499 22.091652,31.271976 
	C21.942091,30.842098 21.960440,30.665634 21.996185,30.223612 
z"/>
<path fill="#F48615" opacity="1.000000" stroke="none" 
	d="
M21.915230,29.026043 
	C22.057213,29.087484 22.073307,29.272005 22.062843,29.733360 
	C21.905252,29.827993 21.751719,29.656622 21.655891,29.457478 
	C21.624092,29.391397 21.740623,29.253941 21.915230,29.026043 
z"/>
<path fill="#FFD63C" opacity="1.000000" stroke="none" 
	d="
M23.986294,33.481735 
	C24.417236,33.175724 24.776949,33.211727 25.546236,33.551445 
	C27.246382,34.972202 28.536951,36.089245 29.827520,37.206284 
	C29.827520,37.206284 29.855745,37.659790 30.011578,38.193314 
	C31.134315,39.149349 32.101219,39.571869 33.068127,39.994385 
	C31.204845,41.424580 29.341562,42.854774 27.288284,44.127533 
	C25.903439,42.112774 24.708590,40.255459 23.282673,38.166634 
	C23.339424,36.564671 23.627243,35.194214 23.986294,33.481735 
z"/>
<path fill="#FFCC30" opacity="1.000000" stroke="none" 
	d="
M38.593960,25.000465 
	C39.541595,25.549576 40.043205,26.097342 40.762192,26.820862 
	C41.095169,27.864706 41.210770,28.732796 40.836159,29.658878 
	C37.234051,29.142401 34.122158,28.567930 31.007212,27.745007 
	C31.004162,27.496557 31.000458,26.999483 31.004457,26.660818 
	C31.021326,25.870331 31.034197,25.418509 31.047066,24.966686 
	C33.414021,24.977497 35.780975,24.988306 38.593960,25.000465 
z"/>
<path fill="#FFC22F" opacity="1.000000" stroke="none" 
	d="
M41.741104,15.774100 
	C40.771389,17.487371 39.542946,18.967604 38.152527,20.726425 
	C36.696205,18.764322 35.401859,16.523636 34.107517,14.282947 
	C34.335896,13.966885 34.564274,13.650823 34.792652,13.334760 
	C37.022560,14.070194 39.252472,14.805629 41.741104,15.774100 
z"/>
<path fill="#FFC328" opacity="1.000000" stroke="none" 
	d="
M31.037315,24.609503 
	C31.034197,25.418509 31.021326,25.870331 30.687374,26.740997 
	C28.868258,28.476770 27.370224,29.793699 25.872189,31.110630 
	C25.367733,30.877893 24.863276,30.645155 24.180408,30.194485 
	C25.961910,27.202765 27.921822,24.428980 29.942579,21.313614 
	C30.344805,22.065462 30.686184,23.158892 31.037315,24.609503 
z"/>
<path fill="#FFCC30" opacity="1.000000" stroke="none" 
	d="
M30.340286,19.896450 
	C30.444593,18.744524 30.881847,17.485483 31.650738,16.120430 
	C31.545994,17.272722 31.109615,18.531029 30.340286,19.896450 
z"/>
<path fill="#FFC629" opacity="1.000000" stroke="none" 
	d="
M31.010262,27.993458 
	C34.122158,28.567930 37.234051,29.142401 40.697495,29.878353 
	C41.049038,30.039835 40.985943,30.487545 40.938263,30.708044 
	C40.890587,30.928543 40.453434,30.951294 39.909431,31.105675 
	C36.927170,32.196560 34.488914,33.133064 31.811691,33.761826 
	C31.385241,31.633877 31.197750,29.813667 31.010262,27.993458 
z"/>
<path fill="#F48615" opacity="1.000000" stroke="none" 
	d="
M42.881142,31.836712 
	C42.743168,31.849331 42.477394,31.636494 42.073620,31.206575 
	C42.208195,31.196747 42.480770,31.404001 42.881142,31.836712 
z"/>
<path fill="#FEBC2D" opacity="1.000000" stroke="none" 
	d="
M33.426674,39.995026 
	C32.101219,39.571869 31.134315,39.149349 30.056194,38.416077 
	C32.071999,38.033726 34.199024,37.962128 36.670052,37.933952 
	C35.937782,38.650139 34.861504,39.322903 33.426674,39.995026 
z"/>
<path fill="#FEBC2D" opacity="1.000000" stroke="none" 
	d="
M38.209049,37.985275 
	C38.179760,37.664032 38.464115,37.590046 38.903362,37.880325 
	C38.833801,38.001911 38.655281,37.997898 38.209049,37.985275 
z"/>
<path fill="#F48615" opacity="1.000000" stroke="none" 
	d="
M32.050655,34.069572 
	C34.488914,33.133064 36.927170,32.196560 39.691147,31.121708 
	C38.822872,36.049244 33.807175,35.106411 30.205994,37.094456 
	C28.536951,36.089245 27.246382,34.972202 25.817505,33.571125 
	C25.679199,33.287086 25.919453,33.069683 26.354721,33.042522 
	C28.543545,33.366764 30.297100,33.718166 32.050655,34.069572 
z"/>
<path fill="#FFB920" opacity="1.000000" stroke="none" 
	d="
M31.811691,33.761829 
	C30.297100,33.718166 28.543545,33.366764 26.473667,32.932529 
	C26.094402,32.463112 26.031464,32.076530 25.920357,31.400288 
	C27.370224,29.793699 28.868258,28.476770 30.683374,27.079662 
	C31.000458,26.999483 31.004162,27.496557 31.007212,27.745007 
	C31.197750,29.813667 31.385241,31.633877 31.811691,33.761829 
z"/>
</svg>