<?xml version="1.0" encoding="UTF-8" standalone="no"?>
<!-- Created with Inkscape (http://www.inkscape.org/) -->

<svg
   version="1.1"
   id="svg1"
   width="412"
   height="412"
   viewBox="0 0 412 412"
   sodipodi:docname="UTM logo.svg"
   xml:space="preserve"
   inkscape:version="1.4 (86a8ad7, 2024-10-11)"
   xmlns:inkscape="http://www.inkscape.org/namespaces/inkscape"
   xmlns:sodipodi="http://sodipodi.sourceforge.net/DTD/sodipodi-0.dtd"
   xmlns:xlink="http://www.w3.org/1999/xlink"
   xmlns="http://www.w3.org/2000/svg"
   xmlns:svg="http://www.w3.org/2000/svg"
   xmlns:rdf="http://www.w3.org/1999/02/22-rdf-syntax-ns#"
   xmlns:cc="http://creativecommons.org/ns#"><defs
     id="defs1"><linearGradient
       id="linearGradient140"
       inkscape:collect="always"><stop
         style="stop-color:#0001aa;stop-opacity:1"
         offset="0"
         id="stop140" /><stop
         style="stop-color:#4692f5;stop-opacity:1"
         offset="1"
         id="stop141" /></linearGradient><filter
       style="color-interpolation-filters:sRGB"
       inkscape:label="Drop Shadow"
       id="filter28"
       x="-0.034368154"
       y="-0.034379244"
       width="1.0902164"
       height="1.0902455"><feFlood
         result="flood"
         in="SourceGraphic"
         flood-opacity="0.498039"
         flood-color="rgb(0,0,0)"
         id="feFlood27" /><feGaussianBlur
         result="blur"
         in="SourceGraphic"
         stdDeviation="4.000000"
         id="feGaussianBlur27" /><feOffset
         result="offset"
         in="blur"
         dx="6.000000"
         dy="6.000000"
         id="feOffset27" /><feComposite
         result="comp1"
         operator="in"
         in="flood"
         in2="offset"
         id="feComposite27" /><feComposite
         result="comp2"
         operator="over"
         in="SourceGraphic"
         in2="comp1"
         id="feComposite28" /></filter><linearGradient
       inkscape:collect="always"
       xlink:href="#linearGradient140"
       id="linearGradient141"
       x1="-15.5"
       y1="213"
       x2="-16"
       y2="-198.5"
       gradientUnits="userSpaceOnUse" /></defs><sodipodi:namedview
     id="namedview1"
     pagecolor="#ffffff"
     bordercolor="#000000"
     borderopacity="0.25"
     inkscape:showpageshadow="2"
     inkscape:pageopacity="0.0"
     inkscape:pagecheckerboard="0"
     inkscape:deskcolor="#d1d1d1"
     inkscape:zoom="11.313708"
     inkscape:cx="204.48644"
     inkscape:cy="208.15456"
     inkscape:window-width="1920"
     inkscape:window-height="1112"
     inkscape:window-x="-8"
     inkscape:window-y="-8"
     inkscape:window-maximized="1"
     inkscape:current-layer="g1" /><g
     inkscape:groupmode="layer"
     inkscape:label="Image"
     id="g1"
     transform="translate(221.91234,198.19357)"><rect
       style="opacity:1;fill:url(#linearGradient141);fill-opacity:1;stroke-width:0.999779"
       id="rect127"
       width="412"
       height="412"
       x="-221.91234"
       y="-198.19357"
       rx="90"
       ry="90" /><g
       id="g134"><path
         id="rect128"
         style="opacity:1;fill:#ffffff;stroke-width:1.00111"
         d="m -132.91211,-132.19336 c -12.742,0 -23,10.258 -23,23 v 234 c 0,12.742 10.258,23 23,23 h 234 c 12.742,0 23,-10.258 23,-23 v -234 c 0,-12.742 -10.258,-23 -23,-23 z m 11,20 H 90.087891 c 7.756,0 13.999999,6.244 13.999999,14.000001 V 113.80664 c 0,7.756 -6.243999,14 -13.999999,14 H -121.91211 c -7.756,0 -14,-6.244 -14,-14 V -98.193359 c 0,-7.756001 6.244,-14.000001 14,-14.000001 z" /><path
         id="rect129"
         style="opacity:1;fill:#ffffff;stroke-width:0.714394"
         d="m -92.912109,-92.193359 c -12.742001,0 -23.000001,10.258 -23.000001,23 v 154 c 0,12.742 10.258,22.999999 23.000001,22.999999 h 154 c 12.742,0 23,-10.257999 23,-22.999999 v -154 c 0,-12.742 -10.258,-23 -23,-23 z m 11,20 h 132 c 7.756,0 14,6.244 14,14 v 132 c 0,7.756 -6.244,14 -14,14 h -132 c -7.756,0 -14,-6.244 -14,-14 v -132 c 0,-7.756 6.244,-14 14,-14 z" /><path
         id="rect130"
         style="opacity:1;fill:#ffffff;stroke-width:0.428947"
         d="m -52.912109,-52.193359 c -12.742,0 -23,10.258 -23,23 v 74 c 0,12.742 10.258,23 23,23 h 74 c 12.742,0 23,-10.258 23,-23 v -74 c 0,-12.742 -10.258,-23 -23,-23 z m 11,20 h 52 c 7.756,0 14,6.244 14,14 v 52 c 0,7.756 -6.244,14 -14,14 h -52 c -7.756,0 -14,-6.244 -14,-14 v -52 c 0,-7.756 6.244,-14 14,-14 z" /><circle
         style="opacity:1;fill:#ffffff"
         id="path133"
         cx="-15.912338"
         cy="7.806427"
         r="20" /></g></g><metadata
     id="metadata1"><rdf:RDF><cc:Work
         rdf:about=""><cc:license
           rdf:resource="http://creativecommons.org/publicdomain/zero/1.0/" /></cc:Work><cc:License
         rdf:about="http://creativecommons.org/publicdomain/zero/1.0/"><cc:permits
           rdf:resource="http://creativecommons.org/ns#Reproduction" /><cc:permits
           rdf:resource="http://creativecommons.org/ns#Distribution" /><cc:permits
           rdf:resource="http://creativecommons.org/ns#DerivativeWorks" /></cc:License></rdf:RDF></metadata></svg>
