<svg width="24" height="24" viewBox="0 0 24 24" fill="none" xmlns="http://www.w3.org/2000/svg">
<g clip-path="url(#clip0)">
<path d="M12.0001 0C11.9349 0.00263807 11.8709 0.0186348 11.8121 0.047L2.17008 4.274C1.90508 4.443 1.79208 4.637 1.79808 4.966L2.63008 15.244C2.63908 15.351 2.67708 15.409 2.75808 15.494L6.32208 18.207C6.32208 18.207 6.33708 20.222 6.77708 21.013C7.10908 21.61 8.65208 24.033 12.0001 24C15.3481 23.967 16.9881 21.97 17.4841 20.972C17.9541 20.026 17.9441 18.06 17.9441 18.06L21.1991 15.512C21.2419 15.4839 21.2771 15.4456 21.3015 15.4006C21.326 15.3556 21.3389 15.3052 21.3391 15.254L22.1991 4.944C22.2251 4.632 22.0961 4.374 21.8311 4.259L12.1811 0.047C12.1249 0.0183969 12.0631 0.00235967 12.0001 0V0ZM11.9491 1.078C12.0031 1.08 12.0571 1.098 12.1371 1.134L19.5541 4.563L12.1321 8.9C12.0171 8.958 11.9661 8.949 11.8681 8.9L4.51808 4.636C4.40508 4.562 4.39808 4.511 4.51808 4.439L11.7521 1.125C11.8141 1.09691 11.881 1.08096 11.9491 1.078V1.078ZM11.9591 1.766L5.90508 4.591L11.9471 8.081L18.0141 4.601L11.9591 1.766ZM11.9591 2.141L17.1911 4.601L13.9291 6.421L12.8891 5.864L14.6531 3.656L12.5151 4.494L13.6391 3.1L10.3871 4.446L11.4871 3.296L10.5091 2.846L11.9591 2.141ZM10.1221 2.99L10.9061 3.378L8.79108 5.476L12.4061 3.984L11.1601 5.486L13.3971 4.554L12.2611 5.973L13.4931 6.639L11.9331 7.524L6.78508 4.578L10.1221 2.99ZM3.19208 6.892C3.22108 6.892 3.26408 6.912 3.32708 6.946L10.6071 11.523L10.6241 19.341L3.77108 14.284C3.69408 14.211 3.66708 14.186 3.66808 14.091L3.14808 6.954C3.14808 6.911 3.16308 6.892 3.19208 6.892V6.892ZM20.7841 6.978C20.8141 6.978 20.8261 6.998 20.8271 7.04L20.3321 14.067C20.3321 14.163 20.3061 14.187 20.2291 14.26L13.3861 19.341L13.4291 11.536L20.6481 7.032C20.6891 7.00456 20.7354 6.98616 20.7841 6.978V6.978ZM19.9791 10.184L19.8021 10.31L19.6691 10.752L19.6201 10.437L19.3941 10.587L19.5391 11.185L19.3151 12.1L19.5481 11.905L19.6331 11.378L19.6971 11.791L19.9751 11.607L19.7801 10.925L19.9791 10.184ZM4.26908 10.433C4.14908 10.422 4.07908 10.56 4.10008 10.803C4.12808 11.13 4.31008 11.523 4.50808 11.68L4.92708 12.01C5.12708 12.168 5.26508 12.028 5.23408 11.697C5.20408 11.367 5.01808 10.973 4.82008 10.818L4.40308 10.495C4.36519 10.4621 4.31872 10.4406 4.26908 10.433V10.433ZM4.34408 10.668C4.37637 10.6732 4.40654 10.6874 4.43108 10.709L4.82808 11.019C4.95708 11.12 5.07808 11.377 5.09808 11.589C5.11808 11.804 5.02808 11.893 4.89908 11.791L4.49908 11.476C4.37108 11.375 4.25308 11.122 4.23508 10.91C4.22108 10.752 4.26508 10.661 4.34408 10.668V10.668ZM19.1671 10.771C19.1671 10.736 19.0931 10.781 19.0521 10.811C18.8921 10.934 18.6941 11.37 18.6801 11.879C18.6651 12.435 18.7901 12.498 18.9431 12.393C19.1051 12.283 19.3251 11.901 19.3331 11.367C19.3401 10.958 19.1671 10.876 19.1671 10.771V10.771ZM18.4541 10.838C18.4541 10.838 18.0151 11.028 18.0141 11.133C18.0041 11.783 17.9441 13.101 17.9441 13.101L18.2761 12.85C18.2761 12.85 18.6051 12.632 18.6101 12.03C18.6131 11.644 18.4841 11.72 18.4841 11.72C18.4841 11.72 18.5881 11.502 18.5901 11.206C18.5951 10.761 18.4541 10.838 18.4541 10.838ZM19.0561 11.052C19.1711 11.052 19.1501 11.32 19.1481 11.498C19.1461 11.673 19.0601 12.074 18.9681 12.141C18.8751 12.209 18.8681 11.898 18.8701 11.718C18.8731 11.545 18.9441 11.052 19.0561 11.052ZM18.3361 11.127C18.3361 11.127 18.4161 11.077 18.4091 11.341C18.4027 11.4552 18.3727 11.5669 18.3211 11.669L18.1871 11.759L18.1931 11.221L18.3361 11.127ZM17.8241 11.148L17.5951 11.288L17.5351 13.131C17.5351 13.131 17.5211 13.315 17.5711 13.353C17.6431 13.409 17.8381 13.18 17.8381 13.18L17.8341 12.97C17.8341 12.97 17.7591 12.988 17.7621 12.912L17.8241 11.148ZM5.25008 11.16L5.36208 12.356L5.50208 12.467L5.41108 11.479L5.87208 11.842C5.94971 11.9188 5.99815 12.0203 6.00908 12.129C6.01908 12.237 5.97608 12.283 5.91108 12.232L5.51508 11.919L5.99208 12.855L6.19708 13.018L5.87708 12.401L5.94008 12.451C6.07708 12.558 6.17008 12.464 6.14808 12.238C6.12608 12.013 5.99808 11.742 5.86108 11.636L5.25008 11.16ZM18.2991 11.94C18.2991 11.94 18.3991 11.916 18.3891 12.219C18.3811 12.476 18.2991 12.557 18.2991 12.557L18.1471 12.667L18.1601 12.047L18.2991 11.94ZM17.3491 12.114C17.3071 12.102 17.2471 12.12 17.1601 12.191C17.0531 12.261 16.8551 12.571 16.8551 12.571L16.8631 12.761C16.8631 12.761 16.9771 12.62 17.0341 12.574C17.2551 12.354 17.1991 12.664 17.1991 12.664L17.1941 12.763L17.0381 12.909C17.0381 12.909 16.8071 13.136 16.7951 13.567C16.7891 13.773 16.8631 13.917 16.9751 13.832C17.0851 13.75 17.2221 13.502 17.2221 13.502L17.2261 13.646L17.4161 13.476L17.4291 12.456C17.4291 12.456 17.4721 12.149 17.3491 12.114V12.114ZM6.64508 12.24C6.61008 12.212 6.57908 12.213 6.56508 12.244L6.23108 13.044L6.39808 13.177L6.67108 12.506L6.92508 13.196L6.54508 12.896L6.65008 13.176L7.03608 13.483L7.13908 13.763L7.30908 13.897L6.73708 12.379C6.7185 12.3257 6.68687 12.2779 6.64508 12.24V12.24ZM16.6991 12.59L16.5191 12.722L16.5091 13.8C16.5091 13.8 16.4111 13.99 16.3691 14.017C16.2971 14.064 16.2991 13.91 16.2991 13.91L16.3141 12.89L16.1221 13.035L16.1071 14.055C16.1071 14.055 16.0961 14.512 16.2891 14.368C16.3894 14.281 16.4658 14.1698 16.5111 14.045L16.5281 14.173L16.6821 14.063L16.6991 12.59ZM15.8931 12.7L15.7291 12.808L15.6631 13.297L15.5861 13.346V13.369L15.4341 13.464C15.3741 13.557 15.3361 13.844 15.3361 13.844L15.3381 13.556L15.1631 13.68L15.1231 15.163L15.3211 15.02L15.3641 14.143C15.3641 14.143 15.3961 13.932 15.4621 13.822L15.5691 13.736L15.5861 13.427L15.5881 13.582L15.6541 13.526L15.6461 14.471C15.6461 14.471 15.6311 14.785 15.7961 14.675C15.8531 14.636 16.0091 14.445 16.0091 14.445L16.0001 14.252C16.0001 14.252 15.9241 14.323 15.9001 14.338C15.8631 14.361 15.8641 14.28 15.8641 14.28L15.8851 13.365L15.9951 13.288L15.9921 13.048L15.8961 13.108L15.8931 12.7ZM7.34208 12.84C7.21808 12.828 7.14508 12.97 7.17108 13.224C7.20608 13.563 7.40308 13.972 7.61108 14.137L8.06008 14.49L8.12208 14.34L7.59808 13.925C7.46408 13.818 7.33508 13.555 7.31208 13.335C7.28908 13.116 7.38208 13.025 7.51508 13.129L7.93808 13.462L8.00008 13.312L7.48308 12.904C7.44303 12.8698 7.39416 12.8477 7.34208 12.84V12.84ZM17.1921 13.012V13.369C17.1921 13.369 17.0851 13.495 17.0361 13.524C16.9881 13.553 16.9761 13.469 16.9761 13.395C16.9793 13.2864 17.0212 13.1825 17.0941 13.102L17.1921 13.012ZM14.9661 13.183C14.8991 13.231 14.8431 13.371 14.8421 13.496C14.8421 13.621 14.8951 13.683 14.9621 13.636C15.0301 13.588 15.0871 13.448 15.0881 13.322C15.0881 13.197 15.0341 13.134 14.9661 13.183V13.183ZM8.07908 13.372L8.19908 14.492C8.20677 14.5596 8.23749 14.6224 8.28608 14.67L8.95908 15.202L9.02108 15.05L8.33508 14.507L8.22508 13.485L8.07908 13.372ZM14.7631 13.481L14.5501 13.637C14.5501 13.637 14.5281 14.008 14.3681 15.327C14.2361 14.347 14.2361 13.877 14.2361 13.877L13.9901 14.04L14.1421 15.843L14.5071 15.635L14.7631 13.481ZM15.0221 13.779L14.8251 13.92L14.7631 15.425L14.9601 15.283L15.0221 13.779ZM9.11108 14.225C8.98408 14.212 8.91308 14.358 8.94208 14.617C8.98108 14.963 9.18608 15.382 9.39908 15.551L9.85908 15.915L9.92308 15.761L9.38208 15.335C9.26808 15.245 9.15708 15.045 9.10908 14.85L9.74508 15.35L9.80708 15.197L9.08308 14.627C9.09308 14.481 9.17708 14.431 9.29008 14.52L9.72608 14.863L9.78808 14.711L9.25408 14.293C9.21358 14.2576 9.1641 14.2341 9.11108 14.225ZM9.88008 14.812C9.86708 14.825 9.86008 14.854 9.86508 14.893C9.87493 14.973 9.91201 15.0471 9.97008 15.103C10.0181 15.141 10.0501 15.109 10.0401 15.03C10.03 14.9495 9.99296 14.8748 9.93508 14.818C9.91108 14.8 9.89308 14.798 9.88008 14.812ZM9.89508 14.844C9.90508 14.834 9.92108 14.834 9.94008 14.848C9.97808 14.878 10.0141 14.952 10.0201 15.013C10.0281 15.076 10.0041 15.101 9.96508 15.071C9.95308 15.061 9.95008 15.036 9.94008 15.02L9.94608 15.024L9.94008 14.964L9.95508 14.974L9.98008 15.052L10.0021 15.069L9.97208 14.985H9.97608C9.98408 14.983 9.98508 14.972 9.98408 14.966V14.953C9.98098 14.9318 9.97236 14.9118 9.95908 14.895C9.95172 14.8854 9.94295 14.877 9.93308 14.87L9.91008 14.85L9.92508 14.987C9.91008 14.957 9.88808 14.937 9.88508 14.907C9.88008 14.875 9.88508 14.854 9.89508 14.844V14.844ZM9.93108 14.891L9.93708 14.895C9.94708 14.903 9.95008 14.906 9.95508 14.912C9.96012 14.9199 9.96352 14.9288 9.96508 14.938C9.96508 14.944 9.96708 14.948 9.96508 14.951C9.96308 14.957 9.95608 14.953 9.95008 14.949L9.93708 14.939L9.93108 14.891Z" fill="black"/>
</g>
<defs>
<clipPath id="clip0">
<rect width="24" height="24" fill="white"/>
</clipPath>
</defs>
</svg>
